<svg width="23" height="23" viewBox="0 0 23 23" fill="none" xmlns="http://www.w3.org/2000/svg">
<path d="M3.39039 0.0336094C2.55689 0.173798 1.803 0.566328 1.19426 1.17382C0.744732 1.6271 0.552747 1.90747 0.30457 2.4916C-0.0185282 3.2346 0.000202183 2.75796 0.000202183 11.2161C0.000202183 19.4919 -0.00916297 19.1648 0.257744 19.8657C0.440365 20.3564 0.72132 20.7957 1.11934 21.2116C1.68593 21.805 2.29467 22.1602 3.10007 22.3751L3.48872 22.4779L10.9574 22.4966C16.2722 22.506 18.562 22.4966 18.8897 22.4592C19.8637 22.3471 20.6504 21.9779 21.3247 21.3097C21.8257 20.8144 22.1207 20.333 22.3642 19.6087L22.5 19.2115V11.2675V3.32339L22.3923 2.95422C21.999 1.59439 20.9782 0.571001 19.5968 0.136414L19.1754 0.00557137L11.4023 0.000898361C7.12709 -0.00377464 3.5215 0.0102444 3.39039 0.0336094ZM8.37734 8.45899C9.95537 9.97304 11.2337 11.2301 11.229 11.2488C11.2197 11.2675 9.92259 12.5245 8.34456 14.0432L5.46946 16.8049L4.72493 16.09C4.31754 15.7021 3.9804 15.3563 3.98508 15.3329C3.98508 15.3049 4.93564 14.3797 6.09224 13.2768C7.24415 12.1693 8.19004 11.2534 8.19472 11.2394C8.19472 11.2207 7.24884 10.2955 6.08756 9.1833C4.93096 8.07114 3.9804 7.15056 3.9804 7.13654C3.9804 7.07579 5.41327 5.68324 5.46009 5.69259C5.49287 5.70193 6.80399 6.94495 8.37734 8.45899ZM18.59 15.9404V16.8049H15.8742H13.1583V15.9404V15.0759H15.8742H18.59V15.9404Z" fill="#C92071"/>
</svg>
